<svg width="424" height="318" viewBox="0 0 424 318" fill="none" xmlns="http://www.w3.org/2000/svg">
<path fill-rule="evenodd" clip-rule="evenodd" d="M152.039 105.762C155.567 114.778 159.094 123.794 162.623 132.809C163.927 136.143 163.178 140.182 163.294 143.718C163.529 150.918 163.865 158.075 167.41 164.492C170.718 170.482 174.79 176.112 178.953 181.535C184.603 173.512 193.361 167.238 201.785 162.502C207.589 159.239 213.93 156.34 220.583 155.4C222.651 155.107 224.933 154.91 226.984 155.449C226.707 152.277 226.655 149.055 226.895 145.88C227.27 140.903 228.57 137.525 232.347 134.202C234.269 132.512 236.339 130.989 238.448 129.542C239.2 129.026 241.417 128.11 241.87 127.306C242.268 126.599 241.908 124.563 241.961 123.727C242.148 120.798 242.601 117.861 243.459 115.051C245.083 109.737 247.96 104.829 249.758 99.551C247.08 99.1684 244.403 98.7863 241.726 98.4037C239.913 98.1445 238.713 97.3809 237.551 98.7072C233.525 103.298 230.091 108.586 226.411 113.459C223.985 116.671 221.625 119.9 218.878 122.853C214.488 127.573 206.587 135.214 200.11 129.267C196.784 126.214 196.279 120.97 196.213 116.736C196.123 110.974 197.001 105.21 198 99.551C188.202 98.6177 178.106 100.221 168.498 102.035C162.974 103.079 157.465 104.287 152.039 105.762Z" fill="#FFC300"/>
<path fill-rule="evenodd" clip-rule="evenodd" d="M206.524 71.6095C199.311 71.6095 196.181 81.1532 204.875 81.0634C211.658 80.993 215.235 71.6095 206.524 71.6095ZM203.763 82.8881C192.937 82.8881 196.907 69.8514 206.565 69.8173C218.481 69.7752 213.216 82.8865 203.763 82.8881ZM321.573 250.65C317.181 251.559 312.77 252.502 308.496 253.878C305.875 254.722 302.902 257.138 301.484 253.603C300.896 252.139 300.658 250.588 299.948 249.168C299.131 247.532 298.057 246.032 296.919 244.606C294.328 241.361 291.618 237.948 288.671 235.034C282.95 229.377 277.585 223.138 270.639 219.042C268.855 217.99 267.372 216.304 265.652 215.091C263.803 213.788 261.948 212.496 260.052 211.262C256.169 208.736 252.212 206.32 248.199 204.006C250.219 201.557 253.007 199.908 255.593 198.135C258.36 196.238 261.081 194.255 263.811 192.309C265.008 191.457 265.589 191.237 266.924 191.97C268.152 192.644 269.354 193.49 270.527 194.258C273.405 196.14 275.963 198.358 278.254 200.922C283.189 206.443 288.963 210.901 294.457 215.827C300.032 220.826 305.586 226.08 310.323 231.895C312.861 235.01 315.36 238.26 317.56 241.624C318.723 243.402 319.709 245.277 320.723 247.141C321.118 247.866 323.211 250.311 321.573 250.65ZM245.581 199.207C245.447 199.528 245.146 199.812 244.799 199.575C244.706 199.51 244.971 197.993 244.986 197.811C245.091 196.504 245.111 195.19 245.092 193.879C245.054 191.406 244.843 188.941 244.683 186.474C244.361 181.476 244.307 176.458 243.726 171.48C244.966 172.093 246.658 172.984 247.524 174.112C248.234 175.037 248.127 175.846 248.139 176.982C248.177 180.413 248.713 183.826 248.961 187.244C249.06 188.625 249.121 190.003 249.482 191.344C249.787 192.478 250.477 193.737 250.175 194.938C249.658 196.989 247.036 197.951 245.581 199.207ZM252.393 177.761C253.896 178.789 255.616 179.385 255.925 181.38C256.224 183.312 255.814 185.083 256.48 186.981C256.876 188.106 257.722 189.483 257.031 190.583C256.309 191.73 254.499 192.315 253.446 193.114C253.238 190.611 253.414 188.095 253.232 185.591C253.041 182.973 252.393 180.395 252.393 177.761ZM259.866 183.519C261.175 184.57 262.484 185.621 263.793 186.672C262.484 187.385 261.175 188.098 259.866 188.812V183.519ZM240.453 203.62C239.487 204.402 237.831 203.482 237.003 202.913C235.714 202.026 235.487 201.232 235.61 199.697C235.914 195.896 235.217 192.228 234.591 188.477C233.186 180.059 232.044 171.579 231.364 163.071C233.808 164.245 237.036 165.562 238.565 167.937C239.553 169.471 239.263 171.432 239.216 173.176C239.152 175.555 238.953 177.93 238.958 180.31C238.968 184.992 239.492 189.672 239.624 194.353C239.679 196.316 239.673 198.331 240.612 200.113C240.823 200.514 241.916 201.703 241.946 202.031C242.002 202.644 240.906 203.247 240.453 203.62ZM228.561 197.867C225.452 196.249 225.062 192.091 224.328 189.051C223.304 184.813 222.321 180.486 221.729 176.164C221.146 171.914 221.253 167.607 220.59 163.364C220.444 162.433 219.517 160.364 219.907 159.439C220.401 158.269 222.244 158.3 223.283 158.122C224.234 157.959 226.017 156.944 226.631 157.8C227.141 158.513 226.649 160.139 226.529 160.902C225.971 164.461 226.529 168.051 226.934 171.611C227.973 180.71 228.819 189.811 230.365 198.845C229.764 198.518 229.168 198.182 228.561 197.867ZM223.257 207.124C223.166 205.507 223.076 203.889 222.986 202.271C223.93 202.627 224.875 202.983 225.82 203.339C225.077 204.668 224.412 206.09 223.257 207.124ZM219.955 211.153C219.074 212.069 218.293 213.272 217.076 213.777V200.735C218.108 200.888 219.269 200.614 219.692 201.747C220.015 202.613 219.581 203.956 219.706 204.905C219.911 206.469 221.253 209.804 219.955 211.153ZM213.895 191.968C212.99 184.678 212.725 177.326 211.544 170.068C211.277 168.425 210.971 166.831 210.57 165.217C210.316 164.196 209.788 162.953 210.445 161.994C211.458 160.518 214.299 160.56 215.85 160.194C215.664 171.624 216.2 183.28 220.198 194.11C218.88 193.958 214.118 193.763 213.895 191.968ZM213.386 216.969C211.693 218.195 210.161 219.971 208.083 220.542C207.953 215.357 207.876 210.169 207.676 204.986C207.629 203.781 207.597 202.564 207.474 201.363C207.422 200.851 207.079 199.799 207.325 199.285C207.957 197.97 210.275 198.867 211.232 199.462C212.552 200.283 212.405 201.635 212.384 203.083C212.359 204.931 212.388 206.706 212.524 208.555C212.644 210.194 212.797 211.781 213.086 213.396C213.182 213.937 213.954 216.557 213.386 216.969ZM205.262 222.59C203.21 223.715 202.451 221.568 201.511 220.154C200.865 219.183 199.834 218.262 199.574 217.085C199.312 215.9 199.898 214.702 199.997 213.534C200.237 210.725 199.326 207.828 198.972 205.06C198.571 201.915 198.424 198.726 198.424 195.557C199.975 196.262 202.751 196.29 203.309 198.2C203.557 199.048 203.225 200.143 203.174 201.008C203.088 202.466 203.137 203.937 203.119 205.397C203.048 211.185 203.284 216.836 206.5 221.865C206.091 222.112 205.679 222.354 205.262 222.59ZM198.678 226.11C195.204 227.581 191.864 229.456 188.197 230.424C184.529 231.392 180.789 232.267 177.071 233.02C169.289 234.598 161.295 235.521 153.348 235.267C149.458 235.143 145.63 234.631 141.787 234.042C137.895 233.447 134.526 232.045 130.843 230.756C123.683 228.251 116.345 226.627 109.557 223.128C107.919 222.284 106.325 221.36 104.698 220.496C103.834 220.037 102.772 219.84 102.725 218.747C102.677 217.615 103.9 215.536 104.384 214.521C105.135 212.949 106.295 211.701 107.471 210.433C109.465 208.284 111.338 205.089 113.757 203.433C115.091 202.52 115.639 203.078 116.81 203.892C118.352 204.964 120.192 205.727 121.918 206.458C129.017 209.469 137.087 211.292 144.724 212.183C152.244 213.06 159.678 213.913 167.165 212.125C171.402 211.112 175.379 209.409 179.384 207.731C180.708 207.176 182.196 205.956 183.407 206.909C184.702 207.93 185.474 210.037 186.532 211.328C189.066 214.42 192.212 216.825 194.746 219.908C195.361 220.658 200.46 225.355 198.678 226.11ZM99.1262 211.317C98.0024 212.974 96.9905 214.767 96.6696 216.77C94.5111 215.039 93.0378 214.453 94.774 211.717C96.3963 209.16 97.8385 206.554 99.3163 203.906C99.9195 202.825 100.815 201.556 100.619 200.245C100.396 198.751 99.0649 198.08 97.7701 198.754C96.8505 199.233 96.1582 200.498 95.5516 201.309C94.4581 202.771 93.5061 204.324 92.577 205.893C91.8871 207.059 91.2342 208.947 90.2702 209.841C89.6214 210.443 88.8016 210.475 88.6293 209.298C88.4761 208.251 90.0293 206.406 90.4922 205.574C91.247 204.217 92.0776 202.893 92.6701 201.453C93.285 199.961 93.6871 195.02 90.7241 197.476C89.7013 198.324 88.8405 199.961 88.0699 201.034C86.8853 202.685 85.7727 204.388 84.7479 206.143C82.9388 204.934 81.2172 203.024 79.0342 202.504C76.9594 202.01 75.0961 203.893 73.3251 204.76C70.5679 206.111 67.9647 207.75 65.3391 209.335C62.9959 210.749 60.5037 211.856 58.2052 213.352C54.2071 215.955 49.3377 219.384 44.3159 217.838C42.3264 217.225 40.1293 215.965 39.0482 214.12C37.5874 211.628 37.9605 208.308 37.0206 205.61C39.6826 207.082 42.4883 205.382 44.836 204.114C47.4669 202.692 50.196 201.476 52.957 200.33C58.664 197.959 64.5818 195.889 70.1986 193.332C81.1741 188.335 90.4268 180.278 101.44 175.393C104.03 182.905 108.31 189.824 113.981 195.4C108.566 200.245 103.225 205.272 99.1262 211.317ZM185.827 181.394C184.358 180.7 182.569 180.555 183.589 178.638C184.313 177.277 185.887 176.33 186.882 175.172L188.108 182.57C187.349 182.177 186.601 181.76 185.827 181.394ZM194.146 185.47C193.959 181.783 193.497 177.981 192.138 174.527C191.739 173.514 191.056 172.321 191.626 171.267C192.209 170.191 193.923 169.602 194.981 169.152C195.787 175.436 196.175 181.829 198.044 187.919C196.666 187.54 194.242 187.356 194.146 185.47ZM195.29 210.756C195.297 210.867 195.304 210.978 195.311 211.089C193.896 210.391 192.314 209.311 191.578 207.86C190.806 206.338 191.218 204.589 191.228 202.962C191.239 201.084 190.919 199.267 190.572 197.429C190.179 195.357 190.424 193.414 190.556 191.33C191.692 192.098 193.4 192.64 194.148 193.864C194.932 195.144 194.481 196.812 194.326 198.203C193.866 202.337 194.208 206.738 195.29 210.756ZM208.529 191.636C205.798 191.253 204.345 190.7 203.865 187.862C203.275 184.377 202.653 180.912 202.176 177.409C201.733 174.156 200.208 170.783 200.056 167.539C199.948 165.255 203.785 164.441 205.522 163.591C206.45 172.946 206.912 182.362 208.529 191.636ZM180.634 176.483C180.33 177.18 180.078 177.897 179.802 178.605C177.874 175.743 175.973 172.942 173.728 170.315C171.648 167.881 169.914 165.396 168.849 162.357C167.693 159.064 166.634 155.569 166.285 152.085C165.934 148.573 166.257 144.971 166.337 141.449C166.384 139.404 167.53 134.238 165.926 132.571C165.336 131.959 164.405 132.166 163.739 131.599C162.825 130.823 162.53 129.232 162.153 128.165C159.774 121.441 157.678 114.515 154.176 108.264C158.847 106.265 164.133 105.261 169.054 104.038C174.221 102.754 179.589 101.961 184.893 101.52C187.454 101.307 190.019 101.217 192.589 101.236C194.674 101.251 196.76 100.903 196.054 103.559C194.986 107.572 194.212 111.684 194.263 115.857C194.336 121.949 195.896 130.035 202.104 132.812C211.774 137.137 219.401 126.745 224.352 120.157C227.813 115.553 231.15 110.999 234.138 106.057C235.115 104.441 235.949 101.95 237.811 101.144C240.12 100.144 243.451 100.837 245.891 100.837C245.706 103.78 245.518 106.244 244.243 108.951C243.006 111.574 241.994 114.215 241.162 116.993C240.367 119.651 240.006 122.132 239.676 124.846C239.382 127.258 236.913 126.406 235.147 127.098C231.005 128.72 228.773 133.633 227.135 137.422C226.088 139.843 225.007 142.321 224.561 144.938C224.027 148.069 224.411 151.255 224.532 154.403C223.817 154.554 223.034 153.977 222.36 153.817C221.333 153.575 220.211 153.567 219.165 153.636C216.858 153.787 214.52 154.199 212.269 154.712C207.403 155.823 202.802 157.826 198.395 160.136C191.252 163.881 183.966 168.833 180.634 176.483ZM156.683 128.318C149.378 130.832 141.964 133.176 134.346 134.537C130.599 135.206 126.85 135.063 123.065 134.951C121.325 134.899 119.814 134.612 118.128 134.254C116.845 133.982 114.705 133.317 113.514 134.083C112.82 131.798 109.153 131.755 107.273 131.387C105.744 131.088 104.397 130.317 102.895 129.954C102.331 129.818 101.781 129.842 101.282 129.557C100.803 129.283 100.533 128.663 100.034 128.421C99.3179 128.073 98.448 128.05 97.92 127.554C96.6961 126.407 95.3268 125.385 94.1148 124.219C92.8908 123.043 92.3103 121.523 91.4756 120.063C90.5 118.357 88.985 116.677 88.2658 114.861C88.5817 115.078 88.8955 115.297 89.2078 115.52C89.0367 113.383 88.4508 111.505 88.5995 109.29C88.6732 108.198 88.5622 107.497 88.4239 106.464C88.3183 105.674 88.421 105.025 88.4326 104.141C88.4641 101.781 89.2434 99.6212 89.6139 97.3174C89.7373 96.5522 89.8023 95.7311 89.8359 94.9738C89.8661 94.2819 89.4355 93.361 89.5171 92.6153C89.8404 92.7797 90.1319 92.9888 90.3911 93.243C89.6649 91.4671 91.9965 89.3554 92.2548 87.6598C92.6436 85.1096 90.2156 84.4628 88.1627 84.768C85.3996 85.1787 82.8473 86.8114 80.3741 88.0059C76.9879 89.6423 73.62 91.2861 70.3017 93.0579C66.4091 95.1361 63.0104 97.8925 59.1787 100.014C58.6934 100.282 56.9067 101.443 56.5829 100.475C56.2956 99.6171 58.2918 98.0639 58.7766 97.6176C61.2668 95.3245 64.0597 93.2927 66.8538 91.3859C68.7837 90.0684 70.806 88.8904 72.7819 87.6441C74.9048 86.305 77.8802 84.7945 78.7133 82.236C79.399 80.1309 78.6028 78.2179 76.2294 78.8225C73.1579 79.605 70.0818 81.7573 67.262 83.1871C64.4452 84.616 61.5852 85.9663 58.7858 87.4283C58.1613 87.7542 55.7643 89.4403 56.168 88.0933C56.4943 87.0039 58.3787 85.6897 59.1915 84.9452C60.3952 83.8417 61.6635 82.8103 62.9694 81.8302C65.7296 79.7586 68.6624 77.9244 71.6407 76.1865C73.4676 75.1207 75.4344 73.9961 75.5313 71.6256C75.6965 67.5591 72.0043 69.7172 69.8739 70.5238C67.0239 71.602 64.0708 72.3784 61.2138 73.4388C58.6089 74.4052 55.9784 75.4549 53.2009 75.8081C51.7798 75.989 49.6656 76.0433 50.0076 74.0587C50.3749 71.932 53.4121 70.4716 55.0712 69.523C57.9104 67.8995 60.82 67.2813 63.9731 66.5737C67.4061 65.8031 70.7919 64.9737 74.2638 64.3766C81.2987 63.1663 88.0699 62.7386 95.1769 63.385C98.4343 63.681 101.745 63.3638 104.966 63.662C107.108 63.8599 108.715 65.1932 109.88 66.9182C112.717 71.1225 113.908 76.8552 113.452 81.8232C112.791 89.0204 109.65 95.0864 106.966 101.64C104.925 106.625 103.401 113.551 108.877 116.946C111.462 118.549 114.381 118.437 117.277 118.016C121.183 117.447 125.032 116.542 128.849 115.549C136.392 113.587 143.862 111.383 151.309 109.086C151.637 110.384 158.749 127.607 156.683 128.318ZM197.191 116.971C197.466 113.113 197.604 109.309 198.283 105.493C198.504 104.251 198.603 102.872 199.685 102.05C200.755 101.238 202.344 101.212 203.562 100.711C206.795 99.3802 209.437 96.3224 211.881 93.913C214.405 91.4253 216.044 88.591 217.234 85.2673C218.186 82.6091 219.695 78.4113 217.933 75.7969C216.561 73.7618 214.325 73.0471 215.029 70.1155C215.631 67.6096 218.123 66.1989 220.287 67.885C221.64 68.9384 223.16 71.4969 223.16 68.0187C228.928 69.2957 234.888 67.278 239.928 64.5406C240.913 64.0052 242.121 63.1556 243.122 63.999C243.784 64.5563 243.999 65.654 244.724 66.2726C245.482 66.919 246.67 67.278 246.904 68.3595C247.085 69.193 246.559 70.4915 246.334 71.2621C245.76 73.2256 244.987 75.2329 243.417 76.6064C242.737 77.201 240.403 79.2121 239.529 78.3612C238.518 77.3786 240.71 74.1924 237.925 76.0168C236.928 76.6697 236.619 76.7012 236.195 77.8937C235.696 79.2945 235.468 80.7814 235.27 82.248C234.188 81.894 232.468 80.7416 231.361 81.5793C230.313 82.373 230.866 84.0338 231.729 84.7241C232.614 85.4325 234.418 85.565 235.453 85.1096C237.108 84.3812 237.116 82.5196 237.47 80.9905C238.405 81.6683 239.03 82.8707 240.374 82.6401C236.291 87.4817 230.914 90.8348 224.527 90.8456C221.639 90.8506 220.549 91.9607 219.973 94.7759C219.385 97.6515 219.401 100.787 219.397 103.704C219.394 106.084 219.481 108.52 220.208 110.808C220.689 112.323 221.629 113.8 222.223 111.321C222.542 109.991 222.316 108.462 222.302 107.1C222.295 106.244 222.007 104.681 222.567 103.976C223.189 103.193 224.634 103.624 225.5 103.616C227.318 103.599 229.059 102.92 230.878 102.92C228.189 106.881 225.144 110.584 222.569 114.625C219.938 118.757 216.739 122.638 212.862 125.671C209.623 128.205 205.114 129.513 201.437 127.045C198.283 124.928 196.93 120.618 197.191 116.971ZM247.299 80.6634C248.473 82.3387 244.684 85.6367 243.231 85.6114C243.602 85.0148 246.564 79.6154 247.299 80.6634ZM249.88 103.597C250.311 102.359 252.747 102.461 253.758 102.428C255.963 102.356 258.172 102.35 260.379 102.282C266.412 102.098 272.442 101.662 278.481 101.759C284.733 101.858 290.99 101.264 297.23 101.481C303.159 101.687 309.066 102.239 314.895 103.356C325.573 105.402 336.673 108.319 345.209 115.489C352.875 121.929 358.587 131.249 357.379 141.55C356.633 147.901 356.362 154.573 353.956 160.577C351.911 165.681 347.618 168.843 343.185 171.782C343.127 170.559 346.385 162.642 342.908 163.853C341.786 164.243 341.135 165.787 340.524 166.713C339.451 168.337 338.302 169.927 337.139 171.488C335.029 174.322 332.606 177.002 329.492 178.753C328.287 179.432 324.45 181.428 323.768 179.238C323.204 177.424 326.866 173.751 327.729 172.362C328.493 171.131 329.105 169.943 328.818 168.477C328.707 167.913 328.367 167.394 328.239 166.829C328.137 166.372 328.256 165.672 328.049 165.255C326.666 162.463 325.192 167.299 324.755 168.172C323.242 171.194 319.719 173.16 316.978 174.893C313.568 177.048 310.195 179.382 306.237 180.401C308.714 176.159 311.246 171.945 313.495 167.575C315.59 163.507 316.914 158.799 319.361 155.024C319.774 154.386 320.055 153.696 320.383 152.932C320.587 152.456 320.894 150.835 321.164 150.551C321.317 150.389 322.173 150.328 322.509 150.001C322.923 149.6 323.155 148.963 323.365 148.441C323.615 147.82 324.572 145.658 324.321 144.954C324.268 144.807 323.584 144.871 323.466 144.6C323.327 144.282 323.428 144.05 323.413 143.726C323.38 142.978 323.854 142.413 323.295 141.698C326.121 141.698 323.487 134.098 323.004 132.716C322.467 131.18 321.567 130.077 321.152 128.579C320.647 126.751 319.241 125.149 317.987 123.769C316.732 122.388 315.422 120.742 314.01 119.54C312.547 118.295 310.572 117.591 308.91 116.649C308.169 116.228 307.376 115.67 306.525 115.5C306.249 115.582 305.974 115.667 305.7 115.756C305.38 115.589 305.097 115.374 304.849 115.111C303.26 114.285 301.703 113.988 299.914 113.771C291.074 112.703 281.599 112.511 272.725 113.26C268.114 113.65 263.426 114.094 258.885 114.998C254.182 115.934 249.555 117.13 244.8 117.819C245.874 112.876 248.224 108.349 249.88 103.597ZM275.464 42.9493C276.28 42.8408 275.938 43.9526 275.674 44.2872C275.331 43.8934 275.261 43.4474 275.464 42.9493ZM389.995 278.063C389.327 274.846 387.036 271.528 384.395 269.605C381.137 267.231 377.457 267.204 373.628 267.398C369.24 267.62 364.978 268.386 360.656 269.121C356.264 269.868 351.942 270.51 347.68 271.847C345.972 272.382 344.237 272.833 342.553 273.437C341.297 273.887 339.846 274.751 339.217 273.111C338.074 270.131 342.47 268.836 344.221 267.579C345.174 266.894 346.44 265.904 345.245 264.844C343.831 263.591 341.435 264.796 339.993 265.315C338.663 265.794 337.313 265.96 337.651 263.835C337.876 262.423 339.709 261.508 340.734 260.684C341.995 259.67 346.423 256.683 343.582 255.168C340.558 253.557 338.861 257.578 336.277 257.785C334.003 257.967 334.018 252.374 333.382 250.843C331.776 246.974 327.755 251.207 325.949 248.874C325.204 247.912 325.461 246.181 325.183 245.054C324.725 243.197 323.663 241.375 322.806 239.674C320.907 235.91 318.714 232.293 316.259 228.865C313.808 225.441 311.092 222.496 308.002 219.649C304.902 216.793 302.2 213.548 299.152 210.641C293.084 204.853 286.09 200.091 279.872 194.445C278.437 193.141 277.069 191.782 275.393 190.782C273.854 189.865 271.31 189.37 270.084 188.065C269.287 187.216 269.419 186.023 269.031 184.979C268.376 183.209 266.802 182.011 265.454 180.775C259.188 175.025 252.632 169.313 245.273 164.99C241.704 162.893 238.089 160.283 234.26 158.704C233.023 158.193 231.35 157.982 230.332 157.048C229.265 156.068 229.064 154.356 228.66 153.032C226.156 144.818 231.314 136.313 237.575 131.209C238.689 130.302 240.294 129.553 241.01 128.282C241.794 126.89 241.832 125.104 242.668 123.689C244.218 121.067 248.435 121.429 251.098 120.833C267.174 117.237 286.253 115.844 302.011 121.581C308.633 123.992 314.32 128.05 316.853 134.808C317.996 137.858 318.598 141.166 318.503 144.426C318.397 148.058 317.068 151.427 315.852 154.81C314.389 158.878 312.753 162.886 310.859 166.773C309.15 170.281 306.983 173.439 305.096 176.834C303.924 178.943 302.064 182.831 304.747 184.577C306.886 185.968 310.282 185.155 312.392 184.137C315.548 182.614 317.881 179.881 320.643 177.8C320.655 179.862 318.822 181.709 319.657 183.795C320.487 185.868 322.739 185.599 324.518 185.093C326.55 184.516 328.656 183.619 330.516 182.622C332.865 181.363 334.555 179.432 336.55 177.72C340.057 174.711 344.716 173.704 348.471 171.095C352.352 168.399 355.034 164.318 356.67 159.94C358.565 154.869 359.34 149.432 359.993 144.085C360.638 138.794 360.954 133.58 359.203 128.457C355.871 118.713 349.111 111.03 340.024 106.211C320.851 96.0408 299.193 96.457 278.136 97.0151C272.365 97.1683 266.588 97.2458 260.825 97.6238C258.176 97.7977 255.521 98.0138 252.89 98.3708C252.087 98.4797 250.291 99.0933 249.576 98.4358C249.024 97.929 249.348 96.8623 248.847 96.2508C247.657 94.7966 245.003 95.1705 243.417 95.3643C241.415 95.6081 239.057 95.6512 237.257 96.6267C235.527 97.5646 234.925 99.5293 232.781 99.5587C230.396 99.591 227.904 99.0241 225.502 98.9331C223.612 98.8614 221.935 98.2105 223.745 96.1406C225.125 94.5622 227.437 94.5717 229.313 94.2144C232.783 93.554 240.67 87.7525 243.268 91.7752C243.982 92.879 243.931 93.2794 245.302 93.7622C246.569 94.209 248.008 94.426 249.336 94.6438C251.807 95.0487 254.68 95.3746 257.097 94.5125C260.854 93.1722 261.631 88.9512 262.508 85.5356C266.521 87.6672 272.58 88.6573 276.542 85.8706C279.872 83.5287 281.069 78.6191 280.926 74.7655C280.883 73.6193 280.731 72.4438 280.323 71.3652C279.945 70.3652 278.926 69.3255 278.964 68.2133C278.997 67.2449 279.91 66.4035 280.33 65.5915C280.952 64.3866 281.251 62.9556 281.375 61.6124C281.826 56.6813 278.141 53.9298 274.311 51.6612C276.561 48.983 279.076 46.3103 278.88 42.5584C278.697 39.0575 275.93 36.6212 273.077 34.979C270.525 33.5103 267.951 32.9418 265.088 32.5857C263.84 32.4305 263.363 32.5584 263.562 31.2715C263.72 30.2496 264.455 29.3416 264.681 28.33C266.001 22.4358 260.176 20.1924 255.462 19.679C247.7 18.8335 240.503 20.414 234.198 24.9943C229.591 15.2928 214.228 20.0794 209.946 27.5979C209.384 28.5838 208.97 29.655 208.776 30.7755C208.647 31.5253 209.053 33.2934 208.678 33.8631C207.949 34.9741 205.041 33.9223 204.017 33.9753C202.139 34.0718 200.128 35.0449 198.612 36.1065C192.205 40.5933 192.53 49.8124 194.068 56.5844C189.95 57.143 185.787 60.5495 185.704 64.929C185.662 67.1268 186.459 69.6062 187.744 71.383C189.06 73.2024 191.461 74.4181 191.707 76.837C191.966 79.3819 191.429 80.8745 193.556 82.7933C195.116 84.2003 197.179 85.3369 199.149 86.0495C203.76 87.7173 209.008 87.1261 213.487 85.327C211.21 88.9214 207.567 92.1255 204.018 94.4326C202.427 95.4678 200.555 96.7977 198.762 97.4416C196.815 98.1405 194.405 96.9211 192.393 96.7526C183.352 95.9961 174.042 97.6412 165.341 99.8879C155.924 102.319 146.615 104.99 137.269 107.692C132.642 109.029 128.022 110.442 123.348 111.605C119.838 112.478 115.928 113.246 112.3 112.628C109.208 112.1 107.692 110.015 108.688 106.886C110 102.765 112.561 98.9215 114.148 94.8736C117.084 87.3861 118.539 78.7839 115.972 70.9884C114.932 67.8316 113.452 64.1667 110.622 62.2007C109.125 61.1614 107.253 60.5486 105.629 59.7275C103.566 58.6841 101.349 57.9289 99.1179 57.3347C90.1531 54.9476 80.695 56.0635 71.7418 57.9024C63.6547 59.5636 51.0912 61.9192 47.4794 70.5847C46.2442 73.5477 45.7954 78.5566 48.8661 80.6236C51.509 82.402 55.4989 81.2513 58.0694 79.9085C55.5643 82.79 52.4535 85.5369 51.2448 89.2771C50.8196 90.5938 50.4921 92.4112 51.3513 93.6318C52.6001 95.4057 54.7234 94.3626 56.4008 93.9465C54.4331 96.4843 51.5997 100.53 53.6083 103.774C55.8306 107.362 60.3103 104.957 63.0759 103.458C67.1792 101.235 71.4581 99.3608 75.5694 97.1509C77.7718 95.9675 79.9315 94.7117 81.8523 93.101C83.4428 91.7673 84.7918 90.3516 86.9867 90.1905C84.1222 95.5978 81.2987 101.222 81.3509 107.492C81.3998 113.33 83.692 120.271 86.7892 125.216C90.0301 130.39 95.2622 133.575 100.784 135.863C106.796 138.355 112.929 140.037 119.46 140.307C132.191 140.835 145.915 137.869 156.902 131.36C157.724 130.873 157.753 130.703 158.522 131.267C159.508 131.989 160.299 134.591 160.916 135.683C162.723 138.885 162.189 141.577 161.848 145.088C161.241 151.323 162.604 157.622 164.522 163.525C166.438 169.423 169.622 174.092 173.61 178.783C175.399 180.888 177.259 182.549 179.676 183.9C182.304 185.368 184.545 186.648 185.565 189.637C186.414 192.129 186.276 194.258 185.095 196.604C184.79 197.21 184.203 199.066 183.643 199.489C183.11 199.892 182.969 199.531 182.475 199.662C181.572 199.902 181.315 200.036 180.586 200.727C178.635 202.578 175.749 203.068 173.223 203.823C169.747 204.863 166.17 205.872 162.531 206.056C156.262 206.373 149.099 206.337 143.063 204.531C136.985 202.711 130.685 201.664 124.837 199.123C122.178 197.967 120.952 197.376 120.388 194.482C120.088 192.947 119.659 192.827 118.372 192.385C116.895 191.878 116.303 191.18 115.432 189.836C113.874 187.434 112.391 184.995 110.943 182.525C109.129 179.433 106.859 176.593 105.152 173.447C104.132 171.567 103.357 168.262 100.7 168.189C99.1229 168.145 97.4049 169.292 95.988 169.876C94.2606 170.587 92.519 171.264 90.7953 171.984C84.1599 174.758 78.2347 178.925 72.1712 182.746C65.5532 186.916 57.9845 189.865 50.9778 193.377C47.7083 195.016 44.5863 196.898 41.598 199.007C39.6656 200.37 35.8931 201.858 36.1755 204.566C35.2194 204.044 34.0232 203.132 33.1085 204.218C32.3532 205.113 32.8712 206.76 33.0613 207.779C33.6861 211.132 34.4294 214.547 36.4723 217.357C39.7082 221.809 45.8757 225.459 51.4958 224.658C58.3659 223.678 63.8758 218.791 69.7795 215.581C71.936 214.408 74.1007 213.317 76.1433 211.955C77.3469 211.153 79.4669 209.423 81.0482 209.631C83.4606 209.949 81.4437 212.803 80.7828 213.916C80.0835 215.094 79.4992 216.336 78.8748 217.556C78.1746 218.923 77.0107 220.449 76.6095 221.93C76.3557 222.868 76.4795 224.29 77.6463 224.524C78.833 224.763 79.8487 223.226 80.4507 222.465C81.4428 221.209 82.2689 219.836 83.1206 218.484C83.6858 217.587 84.3835 215.876 85.3379 215.315C87.8103 213.862 85.1065 218.521 84.6626 219.157C84.1057 219.956 83.2983 220.92 83.1637 221.906C82.9653 223.357 84.1471 224.757 85.6659 224.41C86.836 224.142 87.6252 222.923 88.2836 222.025C88.7067 221.448 89.9713 219.198 90.7911 219.176C91.2979 219.163 92.5774 220.924 92.9724 221.306C94.121 222.416 95.4825 223.173 96.9106 223.865C103.523 227.069 109.535 231.172 116.432 233.835C123.022 236.379 129.894 238.383 136.752 240.036C140.369 240.908 143.75 241.858 147.48 242.165C151.254 242.475 154.974 242.32 158.753 242.242C166.463 242.082 173.729 240.482 181.137 238.441C194.292 234.816 206.652 228.866 216.835 219.653C219.466 217.273 221.849 214.658 224.101 211.92C225.079 210.731 226.104 209.553 226.932 208.253C227.486 207.383 227.989 205.895 228.964 205.398C230.466 204.633 233.928 207.055 235.282 207.726C236.765 208.461 238.283 209.422 239.899 209.806C240.507 209.95 241.098 209.962 241.693 210.169C242.287 210.376 242.987 211.028 243.665 210.882C246.187 210.338 242.052 205.481 245.752 207.941C251.661 211.871 257.186 216.57 262.757 220.962C264.151 222.061 265.58 223.028 267.071 223.991C268.466 224.893 269.536 226.122 270.871 227.099C273.795 229.236 276.552 231.517 279.212 233.978C281.847 236.416 284.373 238.995 287.157 241.265C289.886 243.49 292.013 246.059 294.31 248.711C296.552 251.298 298.224 254.273 299.815 257.286C298.485 256.823 297.369 256.031 296.637 257.765C296.166 258.881 296.569 260.412 296.873 261.523C297.848 265.083 299.896 268.279 301.126 271.753C302.527 275.71 304.598 279.509 305.764 283.536C306.796 287.099 306.553 291.043 308.029 294.495C309.24 297.33 313.653 296.674 316.202 296.927C320.276 297.332 324.302 297.79 328.399 297.917C336.922 298.181 345.556 298.827 354.078 298.498C361.83 298.199 369.564 297.723 377.29 297.056C379.405 296.874 384.111 296.45 384.597 293.674C384.912 291.88 383.317 292.15 382.109 292.262C380.388 292.421 378.648 292.395 376.921 292.425C368.648 292.566 360.524 292.68 352.267 292.05C343.822 291.406 335.383 291.246 326.933 290.933C323.124 290.791 319.424 290.724 315.627 290.896C314.493 290.948 313.1 291.084 312.466 289.986C311.829 288.883 311.917 286.259 311.63 285.018C310.627 280.698 308.425 276.872 306.945 272.722C305.451 268.535 303.964 264.363 302.057 260.341C308.169 259.267 314.271 258.058 320.296 256.574C322.749 255.969 325.338 255.565 327.718 254.744C330.349 253.836 330.408 254.332 330.91 256.82C331.347 258.987 331.844 260.53 329.863 261.973C327.805 263.473 325.287 264.371 323.433 266.151C321.739 267.777 322.08 270.105 324.799 269.769C327.49 269.437 330.574 267.409 333.011 266.279C333.352 267.753 333.669 268.803 332.716 270.077C331.706 271.425 330.166 272.286 329.026 273.508C328.185 274.411 327.302 275.734 328.685 276.609C330.107 277.508 331.527 276.333 332.591 275.52C333.396 274.904 334.724 273.545 335.795 274.308C336.911 275.101 336.32 277.113 336.979 278.196C338.092 280.026 338.861 278.672 339.946 277.899C341.691 276.654 345.249 277 347.328 276.828C349.822 276.621 352.255 276.161 354.734 275.855C357.686 275.491 360.661 275.473 363.61 275.052C368.135 274.407 373.103 272.564 377.644 273.72C384.723 275.522 388.155 283.119 387.032 289.966C386.811 291.315 385.72 294.293 386.977 295.449C388.157 296.535 389.005 294.586 389.434 293.654C391.677 288.77 391.052 283.156 389.995 278.063Z" fill="#08203A"/>
<path fill-rule="evenodd" clip-rule="evenodd" d="M307.813 83.0705C317.539 82.0825 327.608 84.2762 336.99 86.6712C345.414 88.821 353.604 92.3575 359.3 99.1659C360.196 100.237 361.194 102.585 362.407 103.274C364.267 104.331 364.067 101.734 363.602 100.678C362.1 97.2724 358.742 93.6862 356.015 91.2325C349.518 85.3872 340.849 82.6767 332.439 81.0043C327.33 79.9882 322.075 79.418 316.863 79.4097C314.265 79.406 311.673 79.6938 309.138 80.2685C308.331 80.4515 307.159 80.6184 306.736 81.456C306.261 82.3972 306.685 83.1848 307.813 83.0705Z" fill="#08203A"/>
<path fill-rule="evenodd" clip-rule="evenodd" d="M79.3669 142.298C81.9912 145.035 85.5091 146.959 89.2382 147.646C91.183 148.004 94.1879 148.545 95.9799 147.424C96.8859 146.858 97.3646 145.752 96.7824 144.73C96.0905 143.516 94.2781 143.561 93.0906 143.394C88.702 142.778 85.0975 141.578 81.7503 138.573C78.6779 135.816 76.5948 132.294 75.1157 128.467C74.4272 126.684 74.1253 124.87 73.6665 123.028C73.4069 121.986 72.7241 119.549 71.5983 121.321C69.8369 124.092 72.1038 129.719 73.1121 132.4C74.5079 136.112 76.6221 139.435 79.3669 142.298Z" fill="#08203A"/>
<path fill-rule="evenodd" clip-rule="evenodd" d="M184.669 42.0467C187.167 39.4762 188.403 36.0697 191.253 33.7348C191.785 33.3001 193.826 32.3858 193.802 31.5958C193.771 30.5565 192.566 30.7362 191.941 30.9391C188.862 31.937 183.025 38.7591 184.669 42.0467Z" fill="#08203A"/>
<path fill-rule="evenodd" clip-rule="evenodd" d="M231.832 79.2654C232.854 78.4394 235.326 76.3194 235.157 74.8383C234.999 73.4495 233.856 73.7994 232.96 74.358C232.575 74.5985 231.693 75.6089 231.115 75.3443C230.528 75.0755 230.975 75.1691 230.748 74.6677C230.431 73.9687 230.949 72.0587 229.597 72.6061C228.793 72.9315 228.393 74.8337 228.338 75.565C228.198 77.3976 229.464 81.1805 231.832 79.2654Z" fill="#08203A"/>
<path fill-rule="evenodd" clip-rule="evenodd" d="M223.723 85.6074C223.897 86.6736 225.387 88.7182 226.65 87.6255C227.659 86.7527 226.473 85.7523 226.031 84.9105C225.745 84.3648 225.359 82.4207 224.556 82.453C223.3 82.5031 223.597 84.831 223.723 85.6074Z" fill="#08203A"/>
<path fill-rule="evenodd" clip-rule="evenodd" d="M219.22 73.023C219.534 71.9804 218.376 67.9425 216.849 69.1668C215.602 70.1672 217.113 71.214 217.686 71.898C217.966 72.2317 218.867 74.1989 219.22 73.023Z" fill="#08203A"/>
</svg>
