<svg width="36" height="36" viewBox="0 0 36 36" fill="none" xmlns="http://www.w3.org/2000/svg">
<path d="M10.44 4.6499C12.885 4.6499 15.045 5.81989 16.395 7.63489C17.76 5.81989 19.92 4.6499 22.35 4.6499C26.46 4.6499 29.79 7.99489 29.79 12.1349C29.79 12.7649 29.745 13.3799 29.67 13.9649C28.98 13.6649 28.23 13.4999 27.435 13.4999C25.605 13.4999 23.985 14.3849 22.98 15.7349C21.96 14.3849 20.34 13.4999 18.51 13.4999C15.435 13.4999 12.945 16.0049 12.945 19.1099C12.945 23.1299 15.075 26.2049 17.445 28.2899C17.37 28.3349 17.295 28.3499 17.22 28.3799C16.77 28.5449 16.02 28.5449 15.57 28.3799C11.685 27.0449 3 21.5249 3 12.1349C3 10.3799 3.60001 8.75988 4.60501 7.48488" stroke="#08203A" stroke-width="1.5" stroke-linecap="round" stroke-linejoin="round"/>
<path d="M32.9998 19.11C32.9998 26.13 26.5048 30.27 23.5948 31.26C23.2498 31.38 22.6948 31.38 22.3498 31.26C21.1048 30.84 19.1998 29.835 17.4448 28.29C15.0748 26.205 12.9448 23.13 12.9448 19.11C12.9448 16.005 15.4348 13.5 18.5098 13.5C20.3398 13.5 21.9598 14.385 22.9798 15.735C23.9848 14.385 25.6048 13.5 27.4348 13.5C28.2298 13.5 28.9798 13.665 29.6698 13.965" stroke="#08203A" stroke-width="1.5" stroke-linecap="round" stroke-linejoin="round"/>
</svg>
