<svg width="36" height="36" viewBox="0 0 36 36" fill="none" xmlns="http://www.w3.org/2000/svg">
<path d="M6.40506 8.23496L4.95006 9.07496C4.12506 9.55496 3.43506 10.725 3.43506 11.685V26.28C3.43506 29.13 5.46006 30.3 7.92006 28.89L11.4451 26.88C12.2101 26.445 13.4851 26.4 14.2801 26.805L22.1551 30.75C22.9501 31.14 24.2251 31.11 24.9901 30.675L31.4851 26.955C32.3101 26.475 33.0001 25.305 33.0001 24.345V9.73496C33.0001 6.88496 30.9751 5.71496 28.5151 7.12496L24.9901 9.13496C24.2251 9.56996 22.9501 9.61496 22.1551 9.20996L14.2801 5.27996C13.4851 4.88996 12.2101 4.91996 11.4451 5.35496" stroke="#FFC300" stroke-width="1.5" stroke-linecap="round" stroke-linejoin="round"/>
<path d="M12.8398 6V25.5" stroke="#FFC300" stroke-width="1.5" stroke-linecap="round" stroke-linejoin="round"/>
<path d="M23.5952 9.93018V30.0002" stroke="#FFC300" stroke-width="1.5" stroke-linecap="round" stroke-linejoin="round"/>
</svg>
